<svg width="554" height="126" viewBox="0 0 554 126" fill="none" xmlns="http://www.w3.org/2000/svg">
<path d="M331.078 83.0789C331.078 79.2329 333.687 77.0416 337.549 77.0416C340.962 77.0416 343.657 78.7841 349.143 85.279L349.592 85.8247C345.998 87.8401 341.869 88.9401 337.463 88.9401C333.687 88.9401 331.087 86.5639 331.087 83.0789M516.445 95.2503H554V87.7432H523.987V66.5071H551.305V59.0001H523.987V38.3184H553.637V30.8113H516.436V95.2503H516.445ZM472.151 87.7432H460.556V38.3184H472.151C488.41 38.3184 499.019 49.0289 499.019 63.0308C499.019 77.0328 488.419 87.7432 472.151 87.7432ZM453.014 95.2503H472.151C492.816 95.2503 506.743 81.4331 506.743 63.0308C506.743 44.6285 492.816 30.8113 472.151 30.8113H453.014V95.2503ZM410.336 88.9313C396.228 88.9313 385.092 77.4024 385.092 63.0308C385.092 48.6592 396.236 37.1303 410.336 37.1303C424.435 37.1303 435.58 48.6592 435.58 63.0308C435.58 77.4024 424.435 88.9313 410.336 88.9313ZM410.336 96.6232C428.841 96.6232 443.312 81.794 443.312 63.0308C443.312 44.2677 428.85 29.4384 410.336 29.4384C391.822 29.4384 377.359 44.2677 377.359 63.0308C377.359 81.794 391.822 96.6232 410.336 96.6232ZM362.716 63.0308C362.716 70.0802 360.02 76.4871 355.528 81.1515L354.093 79.409C348.34 72.4564 343.044 69.3409 337.471 69.3409C329.748 69.3409 323.907 74.463 323.907 81.6091C323.907 82.894 324.089 84.1701 324.538 85.3582C317.082 80.7819 312.227 72.5444 312.227 63.022C312.227 48.6504 323.372 37.1215 337.471 37.1215C351.571 37.1215 362.716 48.6504 362.716 63.022M337.471 96.6144C343.942 96.6144 349.964 94.7838 354.992 91.5804C360.115 96.3416 363.26 96.6144 368.107 96.6144H370.888V88.9225H369.273C366.215 88.9225 363.795 88.3769 361.186 86.5463C366.94 80.509 370.439 72.2716 370.439 63.022C370.439 44.2589 355.977 29.4296 337.463 29.4296C318.948 29.4296 304.486 44.2589 304.486 63.022C304.486 81.7852 318.948 96.6144 337.463 96.6144M287.233 95.0566H294.784V30.8201H287.233V95.0742V95.0566ZM223.889 95.2415H231.44V41.6098L266.749 95.0655H274.3V30.8201H266.749V81.8028L233.324 30.8201H223.889V95.2591V95.2415ZM189.384 96.6144C203.492 96.6144 213.194 87.092 213.194 70.8987V30.8113H205.643V70.8987C205.643 82.2516 199.621 88.9313 189.384 88.9313C179.146 88.9313 173.124 82.2516 173.124 70.8987V30.8113H165.574V70.8987C165.574 87.1008 175.276 96.6144 189.384 96.6144ZM17.5034 87.092C16.8727 87.092 16.3371 87.2768 15.9742 87.7344C15.6114 87.2768 15.0757 87.092 14.445 87.092C14.0822 87.092 13.728 87.18 13.3651 87.3648C13.5465 86.9952 13.6329 86.6344 13.6329 86.2647C13.6329 85.6223 13.4515 85.0766 13.0023 84.707C13.4515 84.3374 13.6329 83.7917 13.6329 83.1493C13.6329 81.8644 12.648 80.8611 11.3867 80.8611C10.756 80.8611 10.2204 81.0459 9.85753 81.5035C9.49467 81.0459 8.95903 80.8611 8.32836 80.8611C7.96551 80.8611 7.61129 80.9491 7.24844 81.1339C7.42986 80.7643 7.51626 80.4034 7.51626 80.0338C7.51626 79.3914 7.33483 78.8457 6.88558 78.4761C7.33483 78.1064 7.51626 77.5608 7.51626 76.9184C7.51626 76.5487 7.42986 76.2759 7.33483 76.0031C15.6027 69.6842 30.7821 69.781 41.2962 78.2913C35.456 84.3286 26.6525 87.7168 17.849 87.0744H17.4861L17.5034 87.092ZM13.6416 39.5857C13.6416 39.216 13.5552 38.8552 13.3738 38.4856C13.7366 38.6704 14.0908 38.7584 14.4537 38.7584C15.0844 38.7584 15.62 38.5736 15.9828 38.1159C16.3457 38.5736 16.8813 38.7584 17.512 38.7584H17.8749C26.6784 38.1159 35.4819 41.5042 41.3221 47.5415C30.808 56.0518 15.6286 56.1486 7.36075 49.8297C7.44714 49.5569 7.54218 49.2841 7.54218 48.9144C7.54218 48.272 7.36075 47.7263 6.9115 47.3567C7.36075 46.9871 7.54218 46.4414 7.54218 45.799C7.54218 45.4294 7.45578 45.0685 7.27435 44.6989C7.63721 44.8837 7.99142 44.9717 8.35428 44.9717C8.98495 44.9717 9.52059 44.7869 9.88345 44.3293C10.2463 44.7869 10.7819 44.9717 11.4126 44.9717C12.674 44.9717 13.6589 43.9684 13.6589 42.6835C13.6589 42.0411 13.4774 41.4954 13.0282 41.1258C13.4774 40.7562 13.6589 40.2105 13.6589 39.5681M109.979 86.2471C109.979 86.6168 110.066 86.9776 110.247 87.3472C109.884 87.1624 109.53 87.0744 109.167 87.0744C108.536 87.0744 108.001 87.2592 107.638 87.7168C107.275 87.2592 106.739 87.0744 106.109 87.0744H105.746C96.9424 87.7168 88.1389 84.3286 82.2987 78.2913C92.8128 69.781 107.992 69.6842 116.26 76.0031C116.174 76.2759 116.079 76.5487 116.079 76.9184C116.079 77.5608 116.26 78.1064 116.709 78.4761C116.26 78.8457 116.079 79.3914 116.079 80.0338C116.079 80.4034 116.165 80.7643 116.346 81.1339C115.984 80.9491 115.629 80.8611 115.267 80.8611C114.636 80.8611 114.1 81.0459 113.737 81.5035C113.375 81.0459 112.839 80.8611 112.208 80.8611C110.947 80.8611 109.962 81.8644 109.962 83.1493C109.962 83.7917 110.143 84.3374 110.593 84.707C110.143 85.0766 109.962 85.6223 109.962 86.2647M106.1 38.7584C106.731 38.7584 107.266 38.5736 107.629 38.1159C107.992 38.5736 108.528 38.7584 109.159 38.7584C109.521 38.7584 109.876 38.6704 110.238 38.4856C110.057 38.8552 109.971 39.216 109.971 39.5857C109.971 40.2281 110.152 40.7738 110.601 41.1434C110.152 41.513 109.971 42.0587 109.971 42.7011C109.971 43.986 110.956 44.9893 112.217 44.9893C112.848 44.9893 113.383 44.8045 113.746 44.3469C114.109 44.8045 114.645 44.9893 115.275 44.9893C115.638 44.9893 115.992 44.9013 116.355 44.7165C116.174 45.0861 116.087 45.447 116.087 45.8166C116.087 46.459 116.269 47.0047 116.718 47.3743C116.269 47.7439 116.087 48.2896 116.087 48.932C116.087 49.3017 116.174 49.5745 116.269 49.8473C108.001 56.1662 92.8215 56.0694 82.3073 47.5591C88.1476 41.5218 96.9511 38.1335 105.755 38.776H106.117L106.1 38.7584ZM85.5212 108.047C85.5212 108.689 85.7026 109.235 86.1519 109.604C85.7026 109.974 85.5212 110.52 85.5212 111.162C85.5212 111.532 85.6076 111.892 85.789 112.262C85.4262 112.077 85.0719 111.989 84.7091 111.989C84.0784 111.989 83.5428 112.174 83.1799 112.632C82.8171 112.174 82.2814 111.989 81.6507 111.989C80.3894 111.989 79.4045 112.993 79.4045 114.277C79.4045 114.92 79.5859 115.466 80.0352 115.835C79.5859 116.205 79.4045 116.75 79.4045 117.393C79.4045 117.763 79.4909 118.123 79.6723 118.493C79.3095 118.308 78.9553 118.22 78.5924 118.22C77.9617 118.22 77.4261 118.405 77.0632 118.863C76.7004 118.405 76.1647 118.22 75.5341 118.22C75.1712 118.22 74.9034 118.308 74.6356 118.405C68.4325 109.983 68.5275 94.5198 76.8818 83.8093C82.8084 89.7586 86.1346 98.7266 85.5039 107.694V108.064L85.5212 108.047ZM38.8858 111.98C38.523 111.98 38.1688 112.068 37.8059 112.253C37.9873 111.884 38.0737 111.523 38.0737 111.153C38.0737 110.511 37.8923 109.965 37.4431 109.595C37.8923 109.226 38.0737 108.68 38.0737 108.038V107.668C37.4431 98.7002 40.7692 89.7322 46.6958 83.7829C55.0501 94.4934 55.1451 109.956 48.9421 118.379C48.6742 118.291 48.4064 118.194 48.0436 118.194C47.4129 118.194 46.8773 118.379 46.5144 118.836C46.1515 118.379 45.6159 118.194 44.9852 118.194C44.6224 118.194 44.2682 118.282 43.9053 118.467C44.0867 118.097 44.1731 117.736 44.1731 117.366C44.1731 116.724 43.9917 116.178 43.5425 115.809C43.9917 115.439 44.1731 114.893 44.1731 114.251C44.1731 112.966 43.1882 111.963 41.9269 111.963C41.2962 111.963 40.7606 112.148 40.3977 112.605C40.0349 112.148 39.4992 111.963 38.8686 111.963M84.7091 13.8875C85.0719 13.8875 85.4262 13.7995 85.789 13.6147C85.6076 13.9844 85.5212 14.3452 85.5212 14.7148C85.5212 15.3573 85.7026 15.9029 86.1519 16.2725C85.7026 16.6422 85.5212 17.1878 85.5212 17.8303V18.1999C86.1519 27.1678 82.8257 36.1358 76.8991 42.0851C68.5448 31.3746 68.4498 15.9117 74.6529 7.48942C74.9207 7.57743 75.1885 7.67423 75.5513 7.67423C76.182 7.67423 76.7177 7.48942 77.0805 7.03178C77.4434 7.48942 77.979 7.67423 78.6097 7.67423C78.9725 7.67423 79.3268 7.58623 79.6896 7.40141C79.5082 7.77104 79.4218 8.13187 79.4218 8.5015C79.4218 9.14395 79.6032 9.6896 80.0525 10.0592C79.6032 10.4289 79.4218 10.9745 79.4218 11.617C79.4218 12.9019 80.4067 13.9051 81.668 13.9051C82.2987 13.9051 82.8343 13.7203 83.1972 13.2627C83.56 13.7203 84.0957 13.9051 84.7264 13.9051M38.091 17.8391C38.091 17.1966 37.9096 16.651 37.4603 16.2813C37.9096 15.9117 38.091 15.3661 38.091 14.7236C38.091 14.354 38.0046 13.9932 37.8232 13.6235C38.186 13.8083 38.5403 13.8963 38.9031 13.8963C39.5338 13.8963 40.0694 13.7115 40.4323 13.2539C40.7951 13.7115 41.3308 13.8963 41.9614 13.8963C43.2228 13.8963 44.2077 12.8931 44.2077 11.6082C44.2077 10.9657 44.0263 10.4201 43.577 10.0504C44.0263 9.6808 44.2077 9.13515 44.2077 8.4927C44.2077 8.12307 44.1213 7.76224 43.9399 7.39261C44.3027 7.57743 44.6569 7.66543 45.0198 7.66543C45.6505 7.66543 46.1861 7.48062 46.549 7.02298C46.9118 7.48062 47.4475 7.66543 48.0781 7.66543C48.441 7.66543 48.7088 7.57743 48.9766 7.48062C55.1797 15.9029 55.0847 31.3658 46.7304 42.0763C40.8038 36.127 37.4776 27.159 38.1083 18.1911V17.8215L38.091 17.8391ZM51.1192 57.4687C51.7499 57.4687 52.2855 57.2839 52.6484 56.8263C53.0112 57.2839 53.5469 57.4687 54.1775 57.4687C54.5404 57.4687 54.8946 57.3807 55.2575 57.1959C55.076 57.5656 54.9896 57.9264 54.9896 58.296C54.9896 58.9385 55.1711 59.4841 55.6203 59.8537C55.1711 60.2234 54.9896 60.769 54.9896 61.4115C54.9896 62.0539 55.1711 62.5996 55.6203 62.9692C55.1711 63.3388 54.9896 63.8845 54.9896 64.5269C54.9896 65.1694 55.1711 65.715 55.6203 66.0847C55.1711 66.4543 54.9896 66.9999 54.9896 67.6424C54.9896 68.012 55.076 68.3728 55.2575 68.7425C54.8946 68.5577 54.5404 68.4697 54.1775 68.4697H54.0911C53.5555 68.4697 53.0112 68.7425 52.657 69.1121C52.2941 68.6545 51.7585 68.4697 51.1278 68.4697C50.3157 68.4697 49.6937 68.8393 49.3308 69.3849L45.5554 73.2308C32.078 61.7019 11.4126 61.6051 0.898495 72.0427C0.362854 72.4124 0 73.046 0 73.8733C0 74.5158 0.181427 75.0614 0.630674 75.431C0.181427 75.8007 0 76.3463 0 76.9888C0 77.6312 0.181427 78.1769 0.630674 78.5465C0.181427 78.9161 0 79.4618 0 80.1042C0 81.3891 0.984889 82.3924 2.24624 82.3924C2.87691 82.3924 3.41255 82.2076 3.77541 81.7499C4.13826 82.2076 4.6739 82.3924 5.30458 82.3924C5.66743 82.3924 6.02165 82.3044 6.3845 82.1196C6.20307 82.4892 6.11668 82.85 6.11668 83.2197C6.11668 83.8621 6.29811 84.4078 6.74735 84.7774C6.29811 85.147 6.11668 85.6927 6.11668 86.3351C6.11668 87.62 7.10157 88.6233 8.36292 88.6233C8.99359 88.6233 9.52923 88.4385 9.89209 87.9809C10.2549 88.4385 10.7906 88.6233 11.4213 88.6233C11.7841 88.6233 12.1383 88.5353 12.5012 88.3505C12.3198 88.7201 12.2334 89.081 12.2334 89.4506C12.2334 90.093 12.4148 90.6387 12.864 91.0083C12.4148 91.3779 12.2334 91.9236 12.2334 92.566C12.2334 93.8509 13.2182 94.8542 14.4796 94.8542C15.1103 94.8542 15.6459 94.6694 16.0088 94.2118C16.3716 94.5814 16.8209 94.7574 17.2701 94.8542C22.8425 95.3119 28.3199 94.3966 33.2616 92.1084C31.0154 97.1424 30.1169 102.722 30.5661 108.399C30.6525 108.856 30.8339 109.314 31.1968 109.683C30.7475 110.053 30.5661 110.599 30.5661 111.241C30.5661 112.526 31.551 113.529 32.8124 113.529C33.443 113.529 33.9787 113.345 34.3415 112.887C34.7044 113.345 35.24 113.529 35.8707 113.529C36.2335 113.529 36.5878 113.441 36.9506 113.257C36.7692 113.626 36.6828 113.987 36.6828 114.357C36.6828 114.999 36.8642 115.545 37.3135 115.914C36.8642 116.284 36.6828 116.83 36.6828 117.472C36.6828 118.757 37.6677 119.76 38.929 119.76C39.5597 119.76 40.0953 119.575 40.4582 119.118C40.8211 119.575 41.3567 119.76 41.9874 119.76C42.3502 119.76 42.7044 119.672 43.0673 119.487C42.8859 119.857 42.7995 120.218 42.7995 120.588C42.7995 121.23 42.9809 121.776 43.4301 122.145C42.9809 122.515 42.7995 123.061 42.7995 123.703C42.7995 124.988 43.7844 125.991 45.0457 125.991C45.6764 125.991 46.212 125.806 46.5749 125.349C46.9377 125.806 47.4734 125.991 48.104 125.991C48.7347 125.991 49.2704 125.806 49.6332 125.349C49.9961 125.806 50.5317 125.991 51.1624 125.991C51.9745 125.991 52.5965 125.622 52.9594 125.076C63.2057 114.365 63.1106 93.3141 51.7931 79.585L55.5685 75.7391C56.1041 75.3694 56.467 74.7358 56.467 73.9085V73.8205C56.467 73.2749 56.1991 72.7204 55.8363 72.3596C56.2855 71.9899 56.467 71.4443 56.467 70.8018C56.467 70.4322 56.3806 70.0714 56.1991 69.7018C56.562 69.8866 56.9162 69.9746 57.2791 69.9746C57.9097 69.9746 58.4454 69.7898 58.8082 69.3321C59.1711 69.7898 59.7067 69.9746 60.3374 69.9746C60.9681 69.9746 61.5037 69.7898 61.8666 69.3321C62.2294 69.7898 62.7651 69.9746 63.3957 69.9746C64.0264 69.9746 64.5621 69.7898 64.9249 69.3321C65.2878 69.7898 65.8234 69.9746 66.4541 69.9746C66.8169 69.9746 67.1712 69.8866 67.534 69.7018C67.3526 70.0714 67.2662 70.4322 67.2662 70.8018C67.2662 71.4443 67.4476 71.9899 67.8969 72.3596C67.4476 72.7292 67.2662 73.2748 67.2662 73.9173C67.2662 74.7446 67.629 75.3782 68.1647 75.7479L71.9401 79.5938C60.6225 93.3229 60.5275 114.374 70.7738 125.085C71.1366 125.63 71.7587 126 72.5708 126C73.2014 126 73.7371 125.815 74.0999 125.358C74.4628 125.815 74.9984 126 75.6291 126C76.2598 126 76.7954 125.815 77.1583 125.358C77.5211 125.815 78.0568 126 78.6874 126C79.9488 126 80.9337 124.997 80.9337 123.712C80.9337 123.069 80.7523 122.524 80.303 122.154C80.7523 121.784 80.9337 121.239 80.9337 120.596C80.9337 120.227 80.8473 119.866 80.6659 119.496C81.0287 119.681 81.3829 119.769 81.7458 119.769C82.3765 119.769 82.9121 119.584 83.2749 119.127C83.6378 119.584 84.1734 119.769 84.8041 119.769C86.0655 119.769 87.0504 118.766 87.0504 117.481C87.0504 116.838 86.8689 116.293 86.4197 115.923C86.8689 115.554 87.0504 115.008 87.0504 114.365C87.0504 113.996 86.964 113.635 86.7825 113.265C87.1454 113.45 87.4996 113.538 87.8625 113.538C88.4931 113.538 89.0288 113.353 89.3916 112.896C89.7545 113.353 90.2901 113.538 90.9208 113.538C92.1821 113.538 93.167 112.535 93.167 111.25C93.167 110.608 92.9856 110.062 92.5364 109.692C92.8992 109.323 93.072 108.865 93.167 108.407C93.6163 102.731 92.7178 97.1512 90.4715 92.1172C95.4133 94.4054 100.891 95.3207 106.463 94.863C106.912 94.775 107.362 94.5902 107.724 94.2206C108.087 94.6782 108.623 94.863 109.254 94.863C110.515 94.863 111.5 93.8598 111.5 92.5748C111.5 91.9324 111.318 91.3867 110.869 91.0171C111.318 90.6475 111.5 90.1018 111.5 89.4594C111.5 89.0898 111.413 88.7289 111.232 88.3593C111.595 88.5441 111.949 88.6321 112.312 88.6321C112.943 88.6321 113.478 88.4473 113.841 87.9897C114.204 88.4473 114.74 88.6321 115.37 88.6321C116.632 88.6321 117.616 87.6288 117.616 86.3439C117.616 85.7015 117.435 85.1558 116.986 84.7862C117.435 84.4166 117.616 83.8709 117.616 83.2285C117.616 82.8588 117.53 82.498 117.349 82.1284C117.712 82.3132 118.066 82.4012 118.429 82.4012C119.059 82.4012 119.595 82.2164 119.958 81.7588C120.321 82.2164 120.856 82.4012 121.487 82.4012C122.748 82.4012 123.733 81.3979 123.733 80.113C123.733 79.4706 123.552 78.9249 123.102 78.5553C123.552 78.1857 123.733 77.64 123.733 76.9976V76.9095C123.733 76.3639 123.465 75.8095 123.102 75.4486C123.552 75.079 123.733 74.5334 123.733 73.8909C123.733 73.0636 123.37 72.43 122.835 72.0604C112.321 61.6227 91.6551 61.7195 78.1777 73.2484L74.4023 69.4025C74.0395 68.8569 73.4174 68.4873 72.6053 68.4873H72.5189C71.9833 68.4873 71.439 68.7601 71.0848 69.1297C70.7219 68.6721 70.1863 68.4873 69.5556 68.4873C69.1928 68.4873 68.8386 68.5753 68.4757 68.7601C68.6571 68.3905 68.7435 68.0296 68.7435 67.66V67.572C68.7435 67.0263 68.4757 66.4719 68.1128 66.1111C68.5621 65.7414 68.7435 65.1958 68.7435 64.5533V64.4653C68.7435 63.9197 68.4757 63.3652 68.1128 63.0044C68.5621 62.6348 68.7435 62.0891 68.7435 61.4467V61.3587C68.7435 60.813 68.4757 60.2586 68.1128 59.8977C68.5621 59.5281 68.7435 58.9825 68.7435 58.34C68.7435 57.9704 68.6571 57.6096 68.4757 57.2399C68.8386 57.4247 69.1928 57.5127 69.5556 57.5127C70.1863 57.5127 70.7219 57.3279 71.0848 56.8703C71.4476 57.3279 71.9833 57.5127 72.614 57.5127C73.4261 57.5127 74.0481 57.1431 74.411 56.5975L78.1864 52.7516C91.6638 64.2805 112.329 64.3773 122.843 53.9397C123.379 53.57 123.742 52.9364 123.742 52.1091C123.742 51.4667 123.56 50.921 123.111 50.5514C123.56 50.1817 123.742 49.6361 123.742 48.9936V48.9056C123.742 48.36 123.474 47.8055 123.111 47.4447C123.56 47.0751 123.742 46.5294 123.742 45.887C123.742 44.6021 122.757 43.5988 121.496 43.5988C120.865 43.5988 120.329 43.7836 119.966 44.2413C119.604 43.7836 119.068 43.5988 118.437 43.5988C118.074 43.5988 117.72 43.6868 117.357 43.8716C117.539 43.502 117.625 43.1412 117.625 42.7715C117.625 42.1291 117.444 41.5834 116.994 41.2138C117.444 40.8442 117.625 40.2985 117.625 39.6561C117.625 38.3712 116.64 37.3679 115.379 37.3679C114.748 37.3679 114.213 37.5527 113.85 38.0103C113.487 37.5527 112.951 37.3679 112.321 37.3679C111.958 37.3679 111.603 37.4559 111.241 37.6407C111.422 37.2711 111.508 36.9102 111.508 36.5406C111.508 35.8982 111.327 35.3525 110.878 34.9829C111.327 34.6133 111.508 34.0676 111.508 33.4252C111.508 32.1403 110.524 31.137 109.262 31.137C108.632 31.137 108.096 31.3218 107.733 31.7794C107.37 31.4098 106.921 31.2338 106.472 31.137C100.899 30.6793 95.4219 31.5946 90.4802 33.8828C92.7264 28.8488 93.6249 23.2691 93.1757 17.5927C93.0893 17.135 92.9079 16.6774 92.545 16.3077C92.9942 15.9381 93.1757 15.3925 93.1757 14.75C93.1757 13.4651 92.1908 12.4618 90.9294 12.4618C90.2988 12.4618 89.7631 12.6466 89.4003 13.1043C89.0374 12.6466 88.5018 12.4618 87.8711 12.4618C87.5082 12.4618 87.154 12.5498 86.7912 12.7347C86.9726 12.365 87.059 12.0042 87.059 11.6346C87.059 10.9921 86.8776 10.4465 86.4283 10.0768C86.8776 9.7072 87.059 9.16156 87.059 8.5191C87.059 7.2342 86.0741 6.23091 84.8128 6.23091C84.1821 6.23091 83.6464 6.41573 83.2836 6.87337C82.9207 6.41573 82.3851 6.23091 81.7544 6.23091C81.3916 6.23091 81.0374 6.31892 80.6745 6.50374C80.8559 6.13411 80.9423 5.77328 80.9423 5.40365C80.9423 4.76119 80.7609 4.21555 80.3116 3.84592C80.7609 3.47629 80.9423 2.93064 80.9423 2.28819C80.9423 1.00328 79.9574 0 78.6961 0C78.0654 0 77.5298 0.184815 77.1669 0.642453C76.8041 0.184815 76.2684 0 75.6377 0H75.5513C75.0157 0 74.4714 0.272823 74.1172 0.642453C73.7544 0.184815 73.2187 0 72.588 0C71.7759 0 71.1539 0.369631 70.7911 0.915276C60.5448 11.6258 60.6398 32.6771 71.9574 46.4062L68.182 50.2522C67.6463 50.6218 67.2835 51.2554 67.2835 52.0827C67.2835 52.7252 67.4649 53.2708 67.9141 53.6404C67.4649 54.0101 67.2835 54.5557 67.2835 55.1982C67.2835 55.5678 67.3699 55.9286 67.5513 56.2982C67.1884 56.1134 66.8342 56.0254 66.4714 56.0254H66.385C65.8493 56.0254 65.305 56.2982 64.9508 56.6679C64.588 56.2102 64.0523 56.0254 63.4217 56.0254H63.3353C62.7996 56.0254 62.2553 56.2982 61.9011 56.6679C61.5383 56.2102 61.0026 56.0254 60.372 56.0254H60.2856C59.7499 56.0254 59.2056 56.2982 58.8514 56.6679C58.4886 56.2102 57.9529 56.0254 57.3223 56.0254C56.9594 56.0254 56.6052 56.1134 56.2423 56.2982C56.4238 55.9286 56.5102 55.5678 56.5102 55.1982V55.1102C56.5102 54.5645 56.2423 54.0101 55.8795 53.6492C56.3287 53.2796 56.5102 52.734 56.5102 52.0915C56.5102 51.2642 56.1473 50.6306 55.6117 50.2609L51.8363 46.415C63.1538 32.6859 63.2489 11.6346 53.0026 0.924076C52.6397 0.378431 52.0177 0.00880073 51.2056 0.00880073C50.5749 0.00880073 50.0393 0.193616 49.6764 0.651254C49.3136 0.193616 48.7779 0.00880073 48.1472 0.00880073H48.0609C47.5252 0.00880073 46.9809 0.281623 46.6267 0.651254C46.2639 0.193616 45.7282 0.00880073 45.0975 0.00880073C43.8362 0.00880073 42.8513 1.01208 42.8513 2.29699C42.8513 2.93944 43.0327 3.48509 43.482 3.85472C43.0327 4.22435 42.8513 4.76999 42.8513 5.41245C42.8513 5.78208 42.9377 6.14291 43.1191 6.51254C42.7563 6.32772 42.4021 6.23971 42.0392 6.23971C41.4085 6.23971 40.8729 6.42453 40.51 6.88217C40.1472 6.42453 39.6115 6.23971 38.9809 6.23971C37.7195 6.23971 36.7346 7.243 36.7346 8.5279C36.7346 9.17036 36.9161 9.716 37.3653 10.0856C36.9161 10.4553 36.7346 11.0009 36.7346 11.6434C36.7346 12.013 36.821 12.3738 37.0024 12.7435C36.6396 12.5586 36.2854 12.4706 35.9225 12.4706C35.2918 12.4706 34.7562 12.6554 34.3934 13.1131C34.0305 12.6554 33.4949 12.4706 32.8642 12.4706C31.6028 12.4706 30.6179 13.4739 30.6179 14.7588C30.6179 15.4013 30.7994 15.9469 31.2486 16.3165C30.8858 16.6862 30.713 17.1438 30.6179 17.6015C30.1687 23.2779 31.0672 28.8576 33.3134 33.8916C28.3717 31.6034 22.8943 30.6881 17.3219 31.1458C16.8727 31.2338 16.4235 31.4186 16.0606 31.7882C15.6977 31.3306 15.1621 31.1458 14.5314 31.1458C13.2701 31.1458 12.2852 32.1491 12.2852 33.434C12.2852 34.0764 12.4666 34.6221 12.9159 34.9917C12.4666 35.3613 12.2852 35.907 12.2852 36.5494C12.2852 36.9191 12.3716 37.2799 12.553 37.6495C12.1902 37.4647 11.8359 37.3767 11.4731 37.3767C10.8424 37.3767 10.3068 37.5615 9.94392 38.0191C9.58107 37.5615 9.04543 37.3767 8.41475 37.3767C7.1534 37.3767 6.16851 38.38 6.16851 39.6649C6.16851 40.3073 6.34994 40.853 6.79919 41.2226C6.34994 41.5922 6.16851 42.1379 6.16851 42.7803C6.16851 43.15 6.25491 43.5108 6.43634 43.8804C6.07348 43.6956 5.71927 43.6076 5.35641 43.6076C4.72574 43.6076 4.1901 43.7924 3.82724 44.2501C3.46439 43.7924 2.92875 43.6076 2.29807 43.6076C1.03673 43.6076 0.0518362 44.6109 0.0518362 45.8958C0.0518362 46.5382 0.233263 47.0839 0.682511 47.4535C0.233263 47.8231 0.0518362 48.3688 0.0518362 49.0112C0.0518362 49.6537 0.233263 50.1993 0.682511 50.569C0.233263 50.9386 0.0518362 51.4842 0.0518362 52.1267C0.0518362 52.954 0.41469 53.5876 0.950331 53.9573C11.4645 64.3949 32.1298 64.2981 45.6073 52.7692L49.3827 56.6151C49.7455 57.1607 50.3676 57.5304 51.1797 57.5304" fill="#16212F"/>
</svg>
